<?xml version="1.0" encoding="UTF-8"?><svg xmlns="http://www.w3.org/2000/svg" xmlns:xlink="http://www.w3.org/1999/xlink" width="30" zoomAndPan="magnify" viewBox="0 0 30 30.000001" height="30.000001" preserveAspectRatio="xMidYMid meet" version="1.0"><defs><clipPath id="clip-0"><path d="M 1.910156 1.601562 L 28.042969 1.601562 L 28.042969 27 L 1.910156 27 Z M 1.910156 1.601562 " clip-rule="nonzero"/></clipPath></defs><g clip-path="url(#clip-0)"><path fill="rgb(100%, 100%, 100%)" d="M 14.976562 1.734375 C 7.792969 1.734375 1.910156 7.574219 1.910156 14.710938 C 1.910156 20.226562 5.394531 24.929688 10.242188 26.820312 C 10.730469 26.710938 11.167969 26.28125 11.167969 25.738281 L 11.167969 23.359375 L 9.75 23.359375 C 8.714844 23.359375 7.84375 22.875 7.410156 22.117188 C 7.300781 21.902344 7.191406 21.628906 7.082031 21.359375 C 6.867188 20.765625 6.59375 20.117188 6.050781 19.738281 C 5.832031 19.574219 5.722656 19.25 5.777344 18.980469 C 5.886719 18.710938 6.15625 18.496094 6.648438 18.546875 C 7.191406 18.601562 8.007812 19.199219 8.5 19.847656 C 8.933594 20.386719 9.261719 20.710938 9.914062 20.710938 L 10.078125 20.710938 C 10.566406 20.710938 11.765625 20.710938 11.984375 20.496094 C 12.144531 20.277344 12.253906 20.117188 12.417969 19.953125 C 9.152344 19.304688 7.300781 17.414062 7.300781 14.546875 C 7.300781 13.574219 7.574219 12.601562 8.171875 11.738281 C 7.953125 10.925781 7.464844 8.816406 8.5 7.898438 L 8.660156 7.734375 L 8.878906 7.734375 C 10.296875 7.734375 11.328125 8.332031 11.984375 8.816406 C 13.886719 8.113281 16.066406 8.113281 17.96875 8.816406 C 18.570312 8.332031 19.605469 7.734375 21.074219 7.734375 L 21.292969 7.734375 L 21.453125 7.898438 C 22.488281 8.871094 22 10.925781 21.78125 11.738281 C 22.324219 12.601562 22.652344 13.574219 22.652344 14.546875 C 22.652344 17.414062 20.800781 19.304688 17.589844 19.953125 C 18.40625 20.820312 18.839844 22.117188 18.839844 23.144531 L 18.839844 25.792969 C 18.839844 26.335938 19.222656 26.765625 19.765625 26.875 C 24.558594 24.929688 28.042969 20.226562 28.042969 14.710938 C 28.042969 7.574219 22.160156 1.734375 14.976562 1.734375 Z M 14.976562 1.734375 " fill-opacity="1" fill-rule="nonzero"/></g></svg>