<?xml version="1.0" encoding="UTF-8"?><svg xmlns="http://www.w3.org/2000/svg" xmlns:xlink="http://www.w3.org/1999/xlink" width="30" zoomAndPan="magnify" viewBox="0 0 30 30.000001" height="30.000001" preserveAspectRatio="xMidYMid meet" version="1.0"><defs><clipPath id="clip-0"><path d="M 3.007812 3.046875 L 17 3.046875 L 17 26.273438 L 3.007812 26.273438 Z M 3.007812 3.046875 " clip-rule="nonzero"/></clipPath><clipPath id="clip-1"><path d="M 9 10 L 26.234375 10 L 26.234375 19 L 9 19 Z M 9 10 " clip-rule="nonzero"/></clipPath></defs><g clip-path="url(#clip-0)"><path fill="rgb(100%, 100%, 100%)" d="M 4.167969 26.273438 L 15.78125 26.273438 C 15.890625 26.273438 15.980469 26.238281 16.054688 26.160156 C 16.132812 26.085938 16.167969 25.992188 16.167969 25.886719 C 16.167969 25.78125 16.132812 25.6875 16.054688 25.613281 C 15.980469 25.539062 15.890625 25.5 15.78125 25.5 L 4.167969 25.5 C 4.0625 25.5 3.972656 25.460938 3.894531 25.386719 C 3.820312 25.3125 3.78125 25.21875 3.78125 25.113281 L 3.78125 4.210938 C 3.78125 4.101562 3.820312 4.011719 3.894531 3.9375 C 3.972656 3.859375 4.0625 3.824219 4.167969 3.824219 L 15.78125 3.824219 C 15.890625 3.824219 15.980469 3.785156 16.054688 3.710938 C 16.132812 3.632812 16.167969 3.542969 16.167969 3.433594 C 16.167969 3.328125 16.132812 3.238281 16.054688 3.160156 C 15.980469 3.085938 15.890625 3.046875 15.78125 3.046875 L 4.167969 3.046875 C 4.015625 3.046875 3.867188 3.078125 3.722656 3.136719 C 3.582031 3.195312 3.457031 3.28125 3.347656 3.386719 C 3.238281 3.496094 3.15625 3.621094 3.097656 3.765625 C 3.039062 3.90625 3.007812 4.054688 3.007812 4.210938 L 3.007812 25.113281 C 3.007812 25.265625 3.039062 25.414062 3.097656 25.558594 C 3.15625 25.699219 3.238281 25.824219 3.347656 25.933594 C 3.457031 26.042969 3.582031 26.125 3.722656 26.1875 C 3.867188 26.246094 4.015625 26.273438 4.167969 26.273438 Z M 4.167969 26.273438 " fill-opacity="1" fill-rule="nonzero"/></g><g clip-path="url(#clip-1)"><path fill="rgb(100%, 100%, 100%)" d="M 26.070312 14.347656 L 20.652344 10.476562 C 20.523438 10.382812 20.390625 10.375 20.25 10.445312 C 20.109375 10.519531 20.039062 10.632812 20.039062 10.789062 L 20.039062 12.339844 L 10.363281 12.339844 C 10.253906 12.339844 10.164062 12.375 10.089844 12.453125 C 10.011719 12.527344 9.976562 12.617188 9.976562 12.726562 L 9.976562 16.597656 C 9.976562 16.703125 10.011719 16.792969 10.089844 16.871094 C 10.164062 16.945312 10.253906 16.984375 10.363281 16.984375 L 20.039062 16.984375 L 20.039062 18.53125 C 20.039062 18.691406 20.109375 18.804688 20.25 18.875 C 20.390625 18.949219 20.523438 18.9375 20.652344 18.847656 L 26.070312 14.976562 C 26.121094 14.941406 26.160156 14.894531 26.191406 14.839844 C 26.21875 14.78125 26.234375 14.722656 26.234375 14.660156 C 26.234375 14.597656 26.21875 14.539062 26.191406 14.484375 C 26.160156 14.429688 26.121094 14.382812 26.070312 14.347656 Z M 20.8125 17.78125 L 20.8125 16.597656 C 20.8125 16.488281 20.777344 16.398438 20.699219 16.324219 C 20.625 16.246094 20.535156 16.210938 20.425781 16.210938 L 10.75 16.210938 L 10.75 13.113281 L 20.425781 13.113281 C 20.535156 13.113281 20.625 13.074219 20.699219 13 C 20.777344 12.925781 20.8125 12.832031 20.8125 12.726562 L 20.8125 11.542969 L 25.179688 14.660156 Z M 20.8125 17.78125 " fill-opacity="1" fill-rule="nonzero"/></g></svg>