<?xml version="1.0" encoding="UTF-8"?><svg xmlns="http://www.w3.org/2000/svg" xmlns:xlink="http://www.w3.org/1999/xlink" width="30" zoomAndPan="magnify" viewBox="0 0 30 30.000001" height="30.000001" preserveAspectRatio="xMidYMid meet" version="1.0"><defs><clipPath id="clip-0"><path d="M 5.34375 3 L 24.214844 3 L 24.214844 26.855469 L 5.34375 26.855469 Z M 5.34375 3 " clip-rule="nonzero"/></clipPath></defs><g clip-path="url(#clip-0)"><path fill="rgb(100%, 100%, 100%)" d="M 6.914062 3 C 6.054688 3 5.34375 3.691406 5.34375 4.53125 L 5.34375 22.882812 C 5.34375 23.722656 6.054688 24.414062 6.914062 24.414062 L 8.488281 24.414062 L 8.488281 26.769531 L 11.109375 25.496094 L 13.730469 26.769531 L 13.730469 24.414062 L 22.640625 24.414062 C 23.503906 24.414062 24.214844 23.722656 24.214844 22.882812 L 24.214844 4.53125 C 24.214844 3.691406 23.503906 3 22.640625 3 Z M 6.914062 4.019531 L 22.640625 4.019531 C 22.9375 4.019531 23.164062 4.242188 23.164062 4.53125 L 23.164062 19.316406 L 6.390625 19.316406 L 6.390625 4.53125 C 6.390625 4.242188 6.617188 4.019531 6.914062 4.019531 Z M 8.488281 5.550781 L 8.488281 8.609375 L 11.632812 8.609375 L 11.632812 5.550781 Z M 9.535156 6.570312 L 10.585938 6.570312 L 10.585938 7.589844 L 9.535156 7.589844 Z M 8.488281 10.136719 L 8.488281 13.195312 L 11.632812 13.195312 L 11.632812 10.136719 Z M 9.535156 11.15625 L 10.585938 11.15625 L 10.585938 12.175781 L 9.535156 12.175781 Z M 8.488281 14.726562 L 8.488281 17.785156 L 11.632812 17.785156 L 11.632812 14.726562 Z M 9.535156 15.746094 L 10.585938 15.746094 L 10.585938 16.765625 L 9.535156 16.765625 Z M 6.390625 20.335938 L 23.164062 20.335938 L 23.164062 22.882812 C 23.164062 23.171875 22.9375 23.394531 22.640625 23.394531 L 13.730469 23.394531 L 13.730469 21.355469 L 8.488281 21.355469 L 8.488281 23.394531 L 6.914062 23.394531 C 6.617188 23.394531 6.390625 23.171875 6.390625 22.882812 Z M 9.535156 22.375 L 12.679688 22.375 L 12.679688 25.113281 L 11.109375 24.347656 L 9.535156 25.113281 Z M 9.535156 22.375 " fill-opacity="1" fill-rule="nonzero"/></g></svg>