<?xml version="1.0" encoding="UTF-8"?><svg xmlns="http://www.w3.org/2000/svg" xmlns:xlink="http://www.w3.org/1999/xlink" width="30" zoomAndPan="magnify" viewBox="0 0 30 30.000001" height="30.000001" preserveAspectRatio="xMidYMid meet" version="1.0"><defs><clipPath id="clip-0"><path d="M 1.976562 1.714844 L 28 1.714844 L 28 27.121094 L 1.976562 27.121094 Z M 1.976562 1.714844 " clip-rule="nonzero"/></clipPath></defs><g clip-path="url(#clip-0)"><path fill="rgb(100%, 75.689697%, 2.749634%)" d="M 27.964844 11.367188 C 27.882812 11.101562 27.703125 10.96875 27.429688 10.96875 L 18.230469 10.96875 L 15.523438 2.171875 C 15.421875 1.929688 15.242188 1.8125 14.984375 1.8125 C 14.726562 1.8125 14.546875 1.929688 14.445312 2.171875 L 11.742188 10.96875 L 2.542969 10.96875 C 2.269531 10.96875 2.089844 11.101562 2.003906 11.367188 C 1.921875 11.632812 1.988281 11.847656 2.214844 12.011719 L 9.78125 17.503906 L 6.539062 26.292969 C 6.441406 26.558594 6.5 26.777344 6.722656 26.949219 C 6.945312 27.125 7.167969 27.128906 7.398438 26.960938 L 14.984375 21.449219 L 22.574219 26.960938 C 22.800781 27.125 23.027344 27.121094 23.25 26.949219 C 23.46875 26.777344 23.53125 26.558594 23.433594 26.289062 L 20.1875 17.503906 L 27.753906 12.011719 C 27.980469 11.847656 28.050781 11.632812 27.964844 11.367188 Z M 27.964844 11.367188 " fill-opacity="1" fill-rule="nonzero"/></g></svg>