<?xml version="1.0" encoding="UTF-8"?><svg xmlns="http://www.w3.org/2000/svg" xmlns:xlink="http://www.w3.org/1999/xlink" width="30" zoomAndPan="magnify" viewBox="0 0 30 30.000001" height="30.000001" preserveAspectRatio="xMidYMid meet" version="1.0"><defs><clipPath id="clip-0"><path d="M 3.089844 3.1875 L 27 3.1875 L 27 25.6875 L 3.089844 25.6875 Z M 3.089844 3.1875 " clip-rule="nonzero"/></clipPath></defs><g clip-path="url(#clip-0)"><path fill="rgb(100%, 100%, 100%)" d="M 22.054688 25.648438 C 21.960938 25.648438 21.863281 25.625 21.773438 25.582031 L 15.0625 22.097656 L 8.351562 25.582031 C 8.148438 25.6875 7.898438 25.667969 7.707031 25.535156 C 7.519531 25.398438 7.425781 25.167969 7.464844 24.941406 L 8.746094 17.566406 L 3.316406 12.34375 C 3.152344 12.183594 3.089844 11.941406 3.164062 11.722656 C 3.234375 11.503906 3.425781 11.34375 3.65625 11.3125 L 11.160156 10.234375 L 14.511719 3.523438 C 14.617188 3.316406 14.828125 3.1875 15.0625 3.1875 C 15.296875 3.1875 15.507812 3.316406 15.609375 3.523438 L 18.964844 10.234375 L 26.46875 11.3125 C 26.699219 11.34375 26.890625 11.503906 26.960938 11.722656 C 27.035156 11.941406 26.972656 12.183594 26.808594 12.34375 L 21.378906 17.566406 L 22.660156 24.941406 C 22.699219 25.167969 22.605469 25.398438 22.417969 25.535156 C 22.308594 25.609375 22.183594 25.648438 22.054688 25.648438 Z M 15.0625 20.808594 C 15.160156 20.808594 15.257812 20.832031 15.347656 20.878906 L 21.242188 23.941406 L 20.117188 17.457031 C 20.082031 17.261719 20.148438 17.0625 20.292969 16.921875 L 25.0625 12.332031 L 18.472656 11.386719 C 18.273438 11.355469 18.097656 11.234375 18.011719 11.054688 L 15.0625 5.15625 L 12.113281 11.054688 C 12.023438 11.234375 11.851562 11.355469 11.652344 11.386719 L 5.0625 12.332031 L 9.832031 16.921875 C 9.976562 17.0625 10.042969 17.261719 10.007812 17.457031 L 8.882812 23.941406 L 14.777344 20.878906 C 14.867188 20.832031 14.964844 20.808594 15.0625 20.808594 Z M 15.0625 20.808594 " fill-opacity="1" fill-rule="nonzero"/></g></svg>