<?xml version="1.0" encoding="UTF-8"?><svg xmlns="http://www.w3.org/2000/svg" xmlns:xlink="http://www.w3.org/1999/xlink" width="30" zoomAndPan="magnify" viewBox="0 0 30 30.000001" height="30.000001" preserveAspectRatio="xMidYMid meet" version="1.0"><defs><clipPath id="clip-0"><path d="M 0.484375 6.671875 L 29.515625 6.671875 L 29.515625 22.636719 L 0.484375 22.636719 Z M 0.484375 6.671875 " clip-rule="nonzero"/></clipPath></defs><g clip-path="url(#clip-0)"><path fill="rgb(32.939148%, 32.939148%, 32.939148%)" d="M 15.175781 22.632812 C 10.308594 22.632812 5.519531 20.160156 0.9375 15.28125 L 0.484375 14.796875 L 0.894531 14.273438 C 1.136719 13.960938 6.929688 6.675781 15.214844 6.675781 C 20.097656 6.675781 24.769531 9.222656 29.105469 14.242188 L 29.515625 14.71875 L 29.140625 15.21875 C 28.910156 15.519531 23.46875 22.632812 15.175781 22.632812 Z M 2.511719 14.722656 C 6.644531 18.953125 10.902344 21.09375 15.175781 21.09375 C 21.53125 21.09375 26.191406 16.324219 27.542969 14.769531 C 23.628906 10.417969 19.484375 8.214844 15.214844 8.214844 C 8.867188 8.214844 3.957031 13.109375 2.511719 14.722656 Z M 2.511719 14.722656 " fill-opacity="1" fill-rule="nonzero"/></g><path fill="rgb(32.939148%, 32.939148%, 32.939148%)" d="M 15.011719 9.75 C 12.351562 9.75 10.195312 11.945312 10.195312 14.652344 C 10.195312 17.363281 12.351562 19.558594 15.011719 19.558594 C 17.671875 19.558594 19.832031 17.363281 19.832031 14.652344 C 19.832031 11.945312 17.671875 9.75 15.011719 9.75 Z M 15.011719 16.714844 C 13.894531 16.714844 12.988281 15.792969 12.988281 14.652344 C 12.988281 13.515625 13.894531 12.59375 15.011719 12.59375 C 16.128906 12.59375 17.035156 13.515625 17.035156 14.652344 C 17.035156 15.792969 16.128906 16.714844 15.011719 16.714844 Z M 15.011719 16.714844 " fill-opacity="1" fill-rule="nonzero"/></svg>